<svg xmlns="http://www.w3.org/2000/svg" width="1080" height="1920" viewBox="0 0 1080 1920">
<defs><linearGradient id="bg" x1="0" y1="0" x2="0" y2="1"><stop offset="0" stop-color="#ffffff"/><stop offset=".7" stop-color="#fbfefd"/><stop offset="1" stop-color="#f7efe4"/></linearGradient><linearGradient id="icon" x1="0" y1="0" x2="1" y2="1"><stop offset="0" stop-color="#17c9cc"/><stop offset="1" stop-color="#063f59"/></linearGradient><filter id="s" x="-30%" y="-30%" width="160%" height="160%"><feDropShadow dx="0" dy="18" stdDeviation="22" flood-color="#05243f" flood-opacity=".13"/></filter></defs>
<rect width="1080" height="1920" fill="url(#bg)"/>
<circle cx="1040" cy="120" r="260" fill="#dff8f7" opacity=".55"/><circle cx="70" cy="1760" r="330" fill="#dff8f7" opacity=".60"/>
<path d="M-100 1320 C180 1160 340 1400 610 1255 S960 1060 1190 1235" fill="none" stroke="#18c9cb" stroke-width="2.3" opacity=".13"/><path d="M-80 1380 C180 1230 360 1460 635 1315 S990 1120 1190 1295" fill="none" stroke="#18c9cb" stroke-width="2" opacity=".08"/>
<g filter="url(#s)"><rect x="400" y="120" width="280" height="280" rx="62" fill="url(#icon)"/><text x="540" y="318" text-anchor="middle" font-family="Tahoma, Arial, sans-serif" font-size="205" font-weight="900" fill="#fff">ح</text><rect x="480" y="315" width="16" height="42" rx="5" fill="#0b3150" opacity=".75"/><rect x="508" y="292" width="16" height="65" rx="5" fill="#0b3150" opacity=".75"/><rect x="536" y="262" width="16" height="95" rx="5" fill="#0b3150" opacity=".75"/><path d="M592 313 L630 350 L704 255" fill="none" stroke="#16c6ca" stroke-width="28" stroke-linecap="round" stroke-linejoin="round"/></g>
<text x="540" y="1588" text-anchor="middle" font-family="Tahoma, Arial, sans-serif" font-size="112" font-weight="900" fill="#05243f">حسبة</text>
<line x1="275" y1="1660" x2="405" y2="1660" stroke="#18c9cb" stroke-width="7" stroke-linecap="round"/><text x="540" y="1682" text-anchor="middle" font-family="Tahoma, Arial, sans-serif" font-size="70" font-weight="900" letter-spacing="5" fill="#05243f">Hesba</text><line x1="675" y1="1660" x2="805" y2="1660" stroke="#18c9cb" stroke-width="7" stroke-linecap="round"/>
<text x="540" y="1765" text-anchor="middle" font-family="Tahoma, Arial, sans-serif" font-size="38" fill="#05243f">إدارة أسهل... قرارات أوضح</text>
<text x="540" y="1870" text-anchor="middle" font-family="Tahoma, Arial, sans-serif" font-size="32" font-weight="700" fill="#667085">Developed by Ahmed Magdy</text>
</svg>